# xmcd CD database file generated by OrangeCD 6.4
#
# Track frame offsets:
#	150
#	14498
#	26315
#	38890
#	51041
#	65222
#	79596
#	98596
#	113090
#	126022
#	141287
#	163695
#	179030
#	197988
#	217418
#	235923
#	248324
#	263176
#	278140
#	290139
#
# Disc length: 4132 seconds
#
# Revision: 1
# Processed by: cddbd v1.5.2PL0 Copyright (c) Steve Scherf et al.
# Submitted via: OrangeCD 6.4
#
DISCID=2c102214
DTITLE=Various Artist - 100 Country Classics
DYEAR=1900
DGENRE=
TTITLE0=John Denver - Take Me Home Country Roads
TTITLE1=Dolly Parton - Jolene
TTITLE2=Lynn Anderson - Rose Garden
TTITLE3=Johnny Cash - I Walk The Line
TTITLE4=Glen Campbell - Rhinestone Cowboy
TTITLE5=Bellamy Brothers - If I Said You Had A Beautiful Body, Would You Hold I
TTITLE5=t Against Mer
TTITLE6=The Soggy Bottom Boys - I Am A Man Of Constant Sorrow
TTITLE7=Hayseed Dixie - Dueling Banjos
TTITLE8=Kenny Rogers - Ruby Don't Take Your Love To Town
TTITLE9=Billy Ray Cyrus - Achy Breaky Heart 
TTITLE10=Texas - I Don't Want A Lover
TTITLE11=Juice Newton - Queen Of Hearts
TTITLE12=Bobbie Gentry - Ode To Billie Joe
TTITLE13=Kris Kristofferson - Me And Bobby McGee
TTITLE14=Joe South - Walk A Mile In My Shoes
TTITLE15=Bobby Bare - Four Strong Winds
TTITLE16=Elvis Presley - Kentucky Rain
TTITLE17=Tanya Tucker - Delta Dawn
TTITLE18=Tammy Wynette - Stand By Your Man 
TTITLE19=Carlos Santana, Willie Nelson, Booker T. Jones - They All Went To Mexi
TTITLE19=co
EXTD=
EXTT0=
EXTT1=
EXTT2=
EXTT3=
EXTT4=
EXTT5=
EXTT6=
EXTT7=
EXTT8=
EXTT9=
EXTT10=
EXTT11=
EXTT12=
EXTT13=
EXTT14=
EXTT15=
EXTT16=
EXTT17=
EXTT18=
EXTT19=
PLAYORDER=
